<?xml version="1.0" encoding="UTF-8"?>
<!-- Generated by Pixelmator Pro 3.6.18 -->
<svg width="667" height="668" viewBox="0 0 667 668" xmlns="http://www.w3.org/2000/svg">
    <path id="Path" fill="#000000" stroke="none" d="M 450.630005 484.043365 C 456.463318 479.493317 461.753357 474.203339 472.33667 463.620026 L 604.25 331.706665 C 607.436707 328.519989 605.976685 323.026672 601.716675 321.546661 C 586.146667 316.146667 565.890015 306.003326 546.943359 287.056641 C 527.996643 268.110016 517.853333 247.853668 512.453308 232.28302 C 510.973389 228.021973 505.47998 226.562317 502.293335 229.751343 L 370.379974 361.66333 C 359.796661 372.246674 354.506653 377.536652 349.956665 383.369995 C 344.589996 390.253326 339.986664 397.696686 336.233337 405.57666 C 333.049988 412.253326 330.683319 419.353333 325.953339 433.549988 L 319.83667 451.893341 L 310.113342 481.059998 L 300.996643 508.409973 C 298.670013 515.396667 300.486664 523.09668 305.693329 528.306702 C 310.90332 533.513306 318.603333 535.329956 325.589996 533.003357 L 352.940002 523.886658 L 382.106659 514.16333 L 400.450012 508.046631 L 400.453339 508.046631 C 414.646667 503.316681 421.746643 500.949951 428.42334 497.766663 C 436.303345 494.013306 443.746704 489.410004 450.630005 484.043365 Z"/>
    <path id="path1" fill="#000000" stroke="none" d="M 645.550049 290.406647 C 673.706665 262.251343 673.706665 216.604004 645.550049 188.449341 C 617.396667 160.294678 571.75 160.294678 543.593323 188.449341 L 539.353333 192.690308 C 535.26001 196.782654 533.406616 202.498657 534.429993 208.195313 C 535.073364 211.778687 536.263367 217.017639 538.43335 223.269012 C 542.77002 235.771332 550.959961 252.183014 566.389954 267.609985 C 581.81665 283.040009 598.22998 291.22998 610.72998 295.566681 C 616.983337 297.736664 622.219971 298.926666 625.803284 299.570007 C 631.5 300.593323 637.216675 298.73999 641.309998 294.646667 L 645.550049 290.406647 Z"/>
    <path id="path2" fill="#000000" fill-rule="evenodd" stroke="none" d="M 39.052322 39.718994 C 0 78.771667 0 141.625305 0 267.333344 L 0 400.666656 C 0 526.373352 0 589.22998 39.052322 628.279968 C 78.105011 667.333313 140.958664 667.333313 266.666656 667.333313 L 333.333344 667.333313 C 459.039978 667.333313 521.896667 667.333313 560.946655 628.279968 C 599.373291 589.853333 599.98999 528.386658 600 406.670013 L 506.056641 500.613342 C 497.063293 509.609985 489.700012 516.980042 481.383301 523.469971 C 471.636658 531.070007 461.093323 537.58667 449.936646 542.90332 C 440.41333 547.440002 430.530029 550.733398 418.459961 554.75 L 341.40332 580.436707 C 316.449982 588.753296 288.939972 582.26001 270.339996 563.659973 C 251.743347 545.059998 245.246674 517.549988 253.566681 492.59668 L 262.683319 465.25 L 278.52002 417.736664 L 279.25 415.543304 C 283.27002 403.473328 286.559998 393.586639 291.096649 384.063324 C 296.41333 372.906677 302.929993 362.363312 310.533325 352.620026 C 317.019989 344.299988 324.389984 336.936676 333.390015 327.943329 L 466.936707 194.395996 L 504 157.334656 L 508.23999 153.093994 C 532.08667 129.247009 563.343323 117.327026 594.599976 117.333313 C 589.556702 82.981689 579.803345 58.575684 560.946655 39.718994 C 521.896667 0.666687 459.039978 0.666687 333.333344 0.666687 L 266.666656 0.666687 C 140.958664 0.666687 78.105011 0.666687 39.052322 39.718994 Z M 141.666672 234 C 141.666672 220.192993 152.859665 209 166.666656 209 L 383.333344 209 C 397.139984 209 408.333344 220.192993 408.333344 234 C 408.333344 247.807007 397.139984 259 383.333344 259 L 166.666656 259 C 152.859665 259 141.666672 247.807007 141.666672 234 Z M 141.666672 367.333344 C 141.666672 353.526672 152.859665 342.333344 166.666656 342.333344 L 250 342.333344 C 263.806671 342.333344 275 353.526672 275 367.333344 C 275 381.139984 263.806671 392.333344 250 392.333344 L 166.666656 392.333344 C 152.859665 392.333344 141.666672 381.139984 141.666672 367.333344 Z M 141.666672 500.666687 C 141.666672 486.859985 152.859665 475.666656 166.666656 475.666656 L 216.666656 475.666656 C 230.473663 475.666656 241.666656 486.859985 241.666656 500.666687 C 241.666656 514.473328 230.473663 525.666687 216.666656 525.666687 L 166.666656 525.666687 C 152.859665 525.666687 141.666672 514.473328 141.666672 500.666687 Z"/>
</svg>
